# xmcd CD database file
#
# Track frame offsets:
#	150
#	20775
#	42977
#	61383
#	82334
#	101624
#	122084
#	141729
#	160251
#	181949
#	200887
#	219890
#	239001
#	255101
#	274041
#	292378
#	310944
#	331853
#
# Disc length: 4714 seconds
#
# Revision: 0
# Processed by: cddbd v1.5.1PL2 Copyright (c) Steve Scherf et al.
# Submitted via: CDex 1.70beta2
#
DISCID=1d126812
DTITLE=Various Artist - Rumba Completa CD 1: Salsa
DYEAR=2006
DGENRE=Salsa
TTITLE0=Gilberto Santa Rosa - Por La Herida De Un Amor
TTITLE1=Marc Anthony - Tu Amor Me Hace Bien
TTITLE2=Adolescent's Orquestra - Búscame
TTITLE3=Franco De Vita and Olga Tañón - Ay Dios
TTITLE4=Andy and Lucas - Tanto La Quería
TTITLE5=Jerry Rivera - Ríos De Dolor
TTITLE6=Michael Stuart - Mayor Que Yo
TTITLE7=Adolescent's Orquesta - Paco
TTITLE8=Doce Disípulos - Quítate Tú
TTITLE9=Gilberto Santa Rosa - Hablando Claro
TTITLE10=Guayacán Orquesta - Ay Amor
TTITLE11=Tito Nieves - Esa Boquita
TTITLE12=La India - Soy Diferente
TTITLE13=Ivy Queen - Amiga No Pienses
TTITLE14=Olga Tañón - No Podrás
TTITLE15=Maelo Ruiz - Cuando Te Olvide Que
TTITLE16=Gilberto Santa Rosa - Enséñame A Vivir Sin Ti
TTITLE17=Tito Rojas - Cuando Un Hombre Se
EXTD=YEAR: 2006
EXTT0=
EXTT1=
EXTT2=
EXTT3=
EXTT4=
EXTT5=
EXTT6=
EXTT7=
EXTT8=
EXTT9=
EXTT10=
EXTT11=
EXTT12=
EXTT13=
EXTT14=
EXTT15=
EXTT16=
EXTT17=
PLAYORDER=
